<?xml version="1.0" standalone="no"?>
<!DOCTYPE svg PUBLIC "-//W3C//DTD SVG 20010904//EN"
 "http://www.w3.org/TR/2001/REC-SVG-20010904/DTD/svg10.dtd">
<svg version="1.0" xmlns="http://www.w3.org/2000/svg"
 width="1024.000000pt" height="1024.000000pt" viewBox="0 0 1024.000000 1024.000000"
 preserveAspectRatio="xMidYMid meet">

<g transform="translate(0.000000,1024.000000) scale(0.100000,-0.100000)"
fill="#000000" stroke="none">
<path d="M0 5120 l0 -5120 5120 0 5120 0 0 5120 0 5120 -5120 0 -5120 0 0
-5120z m2297 1358 c-3 -8 -6 -5 -6 6 -1 11 2 17 5 13 3 -3 4 -12 1 -19z m2655
-91 c15 -12 17 -41 19 -264 l1 -250 97 -7 96 -6 265 268 265 267 132 0 c123 1
133 -1 133 -18 0 -10 -56 -74 -128 -145 -124 -123 -405 -416 -441 -458 -17
-20 -15 -23 52 -95 37 -41 114 -126 170 -189 104 -118 307 -333 318 -338 14
-6 57 80 530 1055 44 89 79 165 79 168 0 4 -4 3 -10 0 -5 -3 -10 -2 -10 3 0
18 32 22 186 22 122 0 152 -3 148 -13 -2 -7 36 -101 87 -207 50 -107 176 -377
280 -600 104 -223 194 -413 199 -422 6 -10 10 -20 10 -22 0 -2 -46 -9 -102
-15 -57 -7 -115 -14 -129 -16 -23 -3 -28 0 -33 26 -3 16 -25 71 -49 122 -24
51 -50 110 -57 132 -7 22 -15 35 -17 28 -3 -9 -93 -12 -356 -13 -264 0 -355
-3 -364 -13 -6 -6 -31 -50 -54 -96 -24 -47 -61 -103 -84 -126 l-40 -41 -110 6
c-60 3 -114 2 -119 -2 -6 -4 -64 -8 -130 -7 l-121 1 -230 247 c-126 137 -231
253 -233 260 -2 7 -39 11 -107 11 -73 0 -105 4 -108 13 -7 17 -8 5 -10 -276
l-2 -248 -120 -5 -120 -5 0 633 c0 553 2 634 15 639 31 13 185 9 202 -4z
m3578 -107 l0 -120 -77 0 c-43 0 -242 -2 -443 -5 l-365 -5 3 -22 c3 -29 -7
-18 -17 20 -8 27 -7 30 12 29 12 0 212 0 445 1 l422 2 0 100 0 100 -478 -3
c-535 -3 -489 3 -559 -77 -68 -78 -75 -106 -71 -279 3 -151 4 -158 33 -210 16
-29 48 -69 70 -88 81 -70 65 -67 447 -73 l348 -5 25 -25 c53 -54 56 -174 6
-240 -19 -23 -27 -25 -133 -30 -62 -3 -242 -5 -401 -5 -235 0 -286 -2 -282
-13 3 -8 5 -52 5 -98 l0 -85 408 3 c405 3 407 3 451 26 67 36 136 106 161 164
19 45 22 65 18 167 -4 134 -21 182 -88 254 -75 82 -70 81 -461 87 -390 6 -372
2 -410 85 -19 42 -24 138 -9 185 10 32 12 22 10 -73 -1 -87 22 -146 67 -166
16 -7 130 -11 337 -11 344 0 381 -5 447 -59 91 -76 129 -171 129 -326 0 -99
-3 -117 -25 -161 -35 -70 -88 -121 -165 -158 l-65 -31 -412 -3 c-393 -3 -413
-2 -413 15 -1 10 -2 62 -3 116 l-2 97 195 0 c312 0 603 11 619 24 57 45 51
200 -9 231 -20 10 -105 14 -360 17 l-335 3 -54 30 c-60 33 -109 86 -143 154
-21 42 -23 59 -23 211 0 192 9 222 95 306 40 39 58 50 92 54 24 3 249 6 501 8
l457 2 0 -120z m-6687 103 c-7 -2 -21 -2 -30 0 -10 3 -4 5 12 5 17 0 24 -2 18
-5z m1102 -17 c22 -11 70 -49 106 -85 51 -51 69 -77 80 -116 l14 -50 6 55 6
55 1 -57 c1 -32 -1 -58 -5 -58 -5 0 -8 -42 -8 -93 -1 -80 -5 -99 -29 -150 -16
-31 -42 -67 -58 -78 l-29 -21 45 -42 c64 -59 78 -100 84 -236 l4 -115 -38 -75
c-27 -51 -52 -84 -82 -107 l-44 -33 161 0 c89 0 161 -4 161 -8 0 -15 -1382
-41 -1436 -28 -21 6 -24 12 -24 56 l0 50 -57 2 -58 2 58 3 57 4 0 568 c0 312
3 571 7 575 4 3 239 5 522 4 488 -3 518 -4 556 -22z m1453 -15 c63 -40 128
-111 152 -166 26 -58 35 -196 19 -300 -10 -69 -19 -96 -48 -139 -55 -82 -166
-166 -221 -166 -11 0 -20 -2 -20 -5 0 -8 282 -399 296 -411 8 -6 14 -16 14
-22 0 -6 15 -13 33 -15 20 -2 10 -4 -25 -5 -31 -1 -60 3 -63 8 -3 6 -50 10
-105 10 l-99 0 -49 73 c-27 39 -92 132 -145 205 -52 73 -97 138 -100 145 -3 9
-57 12 -211 14 -115 1 -214 4 -221 7 -16 6 -25 -65 -25 -214 0 -63 -3 -145 -6
-181 l-7 -66 -105 -6 c-59 -3 -108 -5 -109 -3 -6 6 -13 1258 -7 1268 3 5 202
8 503 6 l496 -3 53 -34z m109 33 c-3 -3 -12 -4 -19 -1 -8 3 -5 6 6 6 11 1 17
-2 13 -5z m-1256 -71 c13 -16 12 -17 -3 -4 -10 7 -18 15 -18 17 0 8 8 3 21
-13z m5553 -75 c-3 -4 -44 -7 -92 -6 -48 0 -71 3 -52 5 19 3 38 10 42 16 6 9
8 9 8 0 0 -8 15 -13 40 -13 31 0 40 4 40 18 0 14 2 15 9 2 6 -8 7 -18 5 -22z
m-190 7 c4 -12 -3 -15 -37 -13 -37 1 -38 2 -9 5 17 2 32 8 32 14 0 14 7 11 14
-6z m-298 -14 c-67 -5 -80 -9 -87 -26 -7 -19 -8 -19 -8 2 -1 28 10 32 99 30
l75 -1 -79 -5z m111 3 c-3 -3 -12 -4 -19 -1 -8 3 -5 6 6 6 11 1 17 -2 13 -5z
m-954 -1061 c-7 -2 -19 -2 -25 0 -7 3 -2 5 12 5 14 0 19 -2 13 -5z m-1503
-343 c-13 -8 -12 -10 3 -10 9 0 17 -7 17 -16 0 -42 443 -964 464 -964 13 0 39
52 94 190 27 69 109 256 177 405 15 33 48 105 73 160 24 55 60 133 78 173 l33
72 116 -1 c63 -1 118 -5 120 -9 3 -4 -119 -270 -271 -591 -152 -321 -276 -590
-277 -596 0 -9 -17 -13 -46 -13 -25 0 -85 -3 -133 -7 -107 -7 -134 -1 -142 33
-4 14 -50 116 -103 227 -108 228 -241 509 -332 702 -33 72 -74 156 -89 187
l-29 57 121 4 c67 1 126 4 131 5 6 1 3 -3 -5 -8z m-3013 -172 c-2 -35 -3 -9
-3 57 0 66 1 94 3 63 2 -32 2 -86 0 -120z m1177 142 c82 -34 167 -114 208
-198 l33 -67 0 -300 c0 -294 0 -301 -24 -360 -45 -110 -173 -213 -294 -235
-55 -11 -932 -20 -945 -10 -6 4 -10 1125 -4 1183 2 17 26 18 485 15 l482 -3
59 -25z m1475 -70 c2 -81 -1 -101 -13 -106 -8 -3 -190 -6 -403 -7 l-388 -2 -3
-132 -3 -133 363 -2 363 -3 0 -110 0 -110 -362 4 -363 4 0 -142 c0 -106 3
-141 13 -142 38 -3 468 2 615 7 l172 7 0 -117 0 -116 -202 -2 c-112 0 -342 -2
-513 -2 l-310 -1 -3 570 c-1 314 0 585 3 603 l6 32 513 0 513 0 2 -100z
m-3441 -37 c-10 -2 -28 -2 -40 0 -13 2 -5 4 17 4 22 1 32 -1 23 -4z m520 0
c-10 -2 -28 -2 -40 0 -13 2 -5 4 17 4 22 1 32 -1 23 -4z m4840 -30 c-10 -2
-26 -2 -35 0 -10 3 -2 5 17 5 19 0 27 -2 18 -5z m-4580 -870 c-76 -2 -200 -2
-275 0 -76 1 -14 3 137 3 151 0 213 -2 138 -3z m119 -149 c-3 -3 -12 -4 -19
-1 -8 3 -5 6 6 6 11 1 17 -2 13 -5z"/>
<path d="M4760 5920 l0 -460 101 0 100 0 -4 111 c-5 110 -5 111 16 103 12 -4
69 -10 125 -13 94 -5 106 -8 124 -30 19 -24 153 -171 308 -336 41 -44 94 -97
118 -117 l43 -38 111 0 111 0 -64 68 c-76 80 -432 471 -472 518 l-28 33 33 37
c18 20 78 82 133 138 55 56 171 175 258 264 87 89 163 162 168 162 5 0 9 5 9
10 0 7 -46 10 -125 9 l-126 -2 -258 -263 -258 -264 -114 0 -114 0 -2 251 c-1
139 -4 258 -7 265 -4 10 -29 14 -96 14 l-90 0 0 -460z"/>
<path d="M6488 6223 c-156 -325 -414 -852 -469 -959 l-57 -111 91 -7 91 -7 33
38 c19 21 56 82 83 136 41 79 54 97 73 97 273 3 584 13 626 20 89 16 97 14
114 -27 8 -21 33 -78 56 -126 23 -49 41 -94 41 -101 0 -29 25 -36 127 -36 57
0 103 3 103 6 0 8 -51 123 -115 259 -60 125 -251 532 -383 813 l-76 162 -131
0 -131 0 -76 -157z m226 -55 c8 -13 44 -88 79 -168 36 -80 90 -200 120 -267
l55 -123 -86 -1 c-48 -1 -176 -3 -285 -4 l-199 -3 6 26 c3 15 60 135 126 267
66 132 124 252 130 268 12 33 34 35 54 5z"/>
<path d="M6569 5932 c-64 -130 -123 -250 -130 -267 -7 -16 -15 -33 -17 -37 -4
-10 464 -9 495 0 21 7 20 11 -43 147 -36 77 -90 197 -121 268 -31 70 -59 127
-62 127 -3 -1 -58 -108 -122 -238z m131 198 c0 -5 -5 -10 -11 -10 -5 0 -7 5
-4 10 3 6 8 10 11 10 2 0 4 -4 4 -10z"/>
<path d="M4760 5294 l0 -155 100 2 100 3 0 153 0 153 -100 0 -100 0 0 -156z"/>
<path d="M1880 5758 l0 -613 517 3 c337 1 529 6 551 13 57 19 125 81 157 145
28 56 30 66 30 179 0 113 -2 123 -27 167 -26 43 -47 64 -94 95 -18 11 -15 15
28 55 69 63 91 126 86 248 -3 82 -8 102 -33 149 -37 68 -102 125 -171 151 -52
19 -77 20 -549 20 l-495 0 0 -612z m988 392 c42 -26 62 -73 62 -147 0 -90 -38
-134 -130 -147 -28 -4 -646 -7 -712 -4 -16 1 -18 16 -18 160 l0 158 383 0
c366 0 383 -1 415 -20z m-683 -420 l-69 -70 149 0 c438 -1 600 -5 623 -18 42
-24 62 -71 62 -146 0 -68 -1 -69 -44 -112 l-43 -44 -397 0 -396 0 0 160 c0
109 3 160 11 160 6 0 45 32 87 70 42 39 78 70 81 70 3 0 -26 -31 -64 -70z"/>
<path d="M2085 6140 c-4 -6 1 -7 11 -3 15 6 16 -3 11 -103 -3 -60 -9 -121 -13
-136 l-6 -27 361 -1 c401 0 416 2 446 61 13 23 16 49 13 97 -4 58 -8 68 -36
94 l-33 28 -374 0 c-223 -1 -377 -5 -380 -10z"/>
<path d="M2090 5500 l0 -140 383 0 c419 0 410 -1 442 60 8 16 15 55 15 89 0
52 -4 65 -27 91 l-28 31 -392 4 -393 5 0 -140z"/>
<path d="M3365 6358 c-3 -7 -3 -184 -1 -393 2 -209 4 -482 5 -607 l1 -227 28
4 c15 2 55 4 89 4 l62 1 5 53 c3 28 8 130 11 226 3 96 6 175 8 176 1 1 107 -1
236 -4 l234 -6 62 -90 c92 -134 214 -307 231 -329 14 -16 25 -18 112 -11 54 4
99 9 101 11 2 1 -10 20 -26 41 -17 21 -83 111 -147 201 -96 133 -115 166 -106
178 7 7 22 14 34 14 47 0 162 92 210 169 57 90 57 358 0 444 -37 56 -98 112
-149 136 -44 20 -58 21 -520 21 -371 0 -477 -3 -480 -12z m931 -210 c45 -24
64 -72 64 -157 0 -107 -47 -184 -122 -200 -18 -4 -178 -9 -355 -10 l-322 -3 1
189 c0 103 2 192 5 196 3 5 161 7 351 5 304 -3 351 -5 378 -20z"/>
<path d="M3898 6142 l-308 -2 -1 -133 c0 -72 -1 -149 -3 -170 l-3 -37 322 0
c368 1 372 2 412 79 31 59 32 170 3 218 -29 49 -31 49 -422 45z"/>
<path d="M5793 4730 c21 -47 62 -132 89 -190 28 -58 68 -141 88 -185 56 -120
225 -475 287 -604 l56 -114 123 6 c68 3 129 9 135 13 10 6 87 160 172 344 14
30 50 107 80 170 30 63 68 144 85 180 17 36 73 156 125 268 l95 202 -108 0
-108 0 -7 -27 c-3 -15 -24 -63 -45 -108 -59 -125 -274 -611 -325 -737 -53
-129 -61 -140 -92 -127 -23 8 -57 73 -215 414 -38 83 -83 179 -100 215 -96
201 -158 336 -158 347 0 8 -33 13 -108 15 l-108 3 39 -85z"/>
<path d="M3120 4575 l1 -235 101 0 100 0 -5 135 c-4 119 -3 135 12 139 9 3
154 8 322 12 352 8 373 5 456 -71 l48 -43 0 -273 c0 -316 1 -312 -97 -361 -55
-28 -57 -28 -309 -33 -140 -3 -289 -7 -331 -10 -70 -4 -79 -2 -89 16 -6 11
-10 37 -9 57 1 20 2 124 1 230 l-1 192 -100 0 -100 0 2 -351 c1 -193 4 -346 6
-340 3 8 134 11 456 11 426 0 455 1 512 20 109 37 217 142 246 239 10 34 13
121 12 336 -1 289 -1 290 -27 347 -33 73 -110 151 -185 186 l-57 27 -483 3
-483 3 1 -236z"/>
<path d="M3541 4602 l-203 -2 3 -372 4 -371 324 7 c359 7 360 7 433 76 l38 37
0 254 c-1 271 -2 279 -52 319 -63 49 -111 61 -231 58 -61 -2 -204 -4 -316 -6z"/>
<path d="M4590 4228 l0 -583 492 3 c271 1 493 4 495 6 2 2 6 44 9 95 l6 91
-348 -6 c-192 -3 -370 -7 -396 -8 -65 -2 -69 9 -66 179 l3 140 363 -1 362 -1
0 93 0 94 -362 2 -363 3 -3 139 c-2 96 1 143 9 153 10 12 73 14 388 13 207 -1
384 -1 394 -1 14 1 17 11 17 64 0 34 -3 72 -6 85 l-6 22 -494 0 -494 0 0 -582z"/>
</g>
</svg>
