<?xml version="1.0" standalone="no"?>
<!DOCTYPE svg PUBLIC "-//W3C//DTD SVG 20010904//EN"
 "http://www.w3.org/TR/2001/REC-SVG-20010904/DTD/svg10.dtd">
<svg version="1.0" xmlns="http://www.w3.org/2000/svg"
 width="500.000000pt" height="500.000000pt" viewBox="0 0 500.000000 500.000000"
 preserveAspectRatio="xMidYMid meet">

<g transform="translate(0.000000,500.000000) scale(0.100000,-0.100000)"
fill="#000000" stroke="none">
<path d="M1403 4298 c-37 -39 -90 -123 -122 -192 -46 -100 -63 -192 -65 -342
l-2 -142 -42 -47 c-50 -57 -148 -200 -190 -277 -77 -143 -153 -375 -183 -563
-17 -102 -17 -386 0 -490 79 -488 356 -909 782 -1188 158 -103 421 -206 624
-243 141 -27 459 -27 600 0 394 73 780 300 1021 601 225 279 345 566 385 915
21 190 -4 465 -59 645 -67 215 -180 428 -316 593 l-48 58 -3 135 c-3 186 -33
298 -119 444 -48 81 -124 152 -127 118 0 -5 -1 -73 -3 -153 -1 -105 -7 -159
-19 -195 -28 -82 -26 -82 -105 -31 -375 243 -858 325 -1299 221 -184 -44 -433
-149 -544 -231 -26 -19 -49 -34 -52 -34 -4 0 -18 37 -32 83 -26 80 -30 140
-22 307 3 47 -20 50 -60 8z m2194 -300 c-3 -8 -6 -5 -6 6 -1 11 2 17 5 13 3
-3 4 -12 1 -19z m-2310 -175 c-3 -10 -5 -2 -5 17 0 19 2 27 5 18 2 -10 2 -26
0 -35z m2229 -28 c-1 -8 -5 -17 -8 -21 -5 -4 -4 16 1 34 3 9 9 -1 7 -13z
m-2219 -77 c-3 -8 -6 -5 -6 6 -1 11 2 17 5 13 3 -3 4 -12 1 -19z m294 -45 c13
-17 13 -17 -6 -3 -11 8 -22 16 -24 17 -2 2 0 3 6 3 6 0 17 -8 24 -17z m2070
-110 c-12 -20 -14 -14 -5 12 4 9 9 14 11 11 3 -2 0 -13 -6 -23z m-2166 -29 c9
-15 12 -23 6 -20 -11 7 -35 46 -28 46 3 0 12 -12 22 -26z m1720 -14 c3 -6 -1
-7 -9 -4 -18 7 -21 14 -7 14 6 0 13 -4 16 -10z m129 -49 c3 -5 -2 -15 -12 -22
-15 -12 -16 -12 -5 2 7 9 10 19 6 22 -3 4 -4 7 0 7 3 0 8 -4 11 -9z m-1487
-33 c-3 -8 -6 -5 -6 6 -1 11 2 17 5 13 3 -3 4 -12 1 -19z m1307 -74 c3 -8 2
-12 -4 -9 -6 3 -10 10 -10 16 0 14 7 11 14 -7z m276 -77 c0 -2 -12 -14 -27
-28 l-28 -24 24 28 c23 25 31 32 31 24z m-365 -657 c-3 -5 -12 -10 -18 -10 -7
0 -6 4 3 10 19 12 23 12 15 0z m-155 -96 c0 -8 -19 -13 -24 -6 -3 5 1 9 9 9 8
0 15 -2 15 -3z m-950 -618 c0 -2 -7 -7 -16 -10 -8 -3 -12 -2 -9 4 6 10 25 14
25 6z m197 -148 c-3 -8 -6 -5 -6 6 -1 11 2 17 5 13 3 -3 4 -12 1 -19z m-366
-141 c-6 -8 -7 -18 -3 -22 4 -5 1 -5 -6 -1 -10 6 -10 11 -1 22 6 8 14 14 16
14 3 0 0 -6 -6 -13z m-24 -83 c-3 -3 -12 -4 -19 -1 -8 3 -5 6 6 6 11 1 17 -2
13 -5z m310 -56 c-3 -8 -6 -5 -6 6 -1 11 2 17 5 13 3 -3 4 -12 1 -19z m830
-40 c-3 -8 -6 -5 -6 6 -1 11 2 17 5 13 3 -3 4 -12 1 -19z m-249 -33 c-3 -3 -9
2 -12 12 -6 14 -5 15 5 6 7 -7 10 -15 7 -18z"/>
</g>
</svg>
